<svg id="a2246920-cc8c-4224-ab7f-95bde84aa19c" data-name="Layer 1" xmlns="http://www.w3.org/2000/svg" xmlns:xlink="http://www.w3.org/1999/xlink" viewBox="0 0 3207 897"><defs><style>.af2e5db1-ded0-4fbc-a458-3dbc0489d703,.bbcacc84-9faf-4bd4-8b33-18dd83c1c54d{fill:none;}.bced41f2-f6a3-49fa-ad42-ccbfaf8a769a{clip-path:url(#abdde2b7-bf18-45a6-a842-f2cef82426ec);}.e5a9559e-a9fb-4de1-a2b6-2d2fa76438bc{fill:#7e7e7e;}.bbcacc84-9faf-4bd4-8b33-18dd83c1c54d{stroke:#000;stroke-miterlimit:10;stroke-width:3.2px;}.bfe34bbb-d90b-4fc1-b04f-c382198578cf{fill:#ff7f7f;}.e0f40ff4-9c41-4ff8-a0b5-a897b1973031{fill:#d4e8c6;}.b36a46b9-1ca3-4926-a3a2-a11a7662b350{fill:#7f7f7f;}.bb2bcaa5-61d0-4e0f-874e-80e8d8622c6c{clip-path:url(#aec5bf4a-5549-449e-a8d7-2922cdfa2739);}.a54a3254-a7b8-4fbc-a71a-bd67296d5580{clip-path:url(#b3b1b0f9-8c65-481d-a5c6-3e0e7ce23a31);}.e9f2a31b-8e0f-408a-bf13-7dc687c8a833{fill:#d9d9d9;}.bc615ded-3750-4adb-8212-cc6864385948{clip-path:url(#f68cf999-ba90-4bb0-b5fa-476efc529f75);}.ae996fba-6ff4-422c-8226-f84a46128f4d{clip-path:url(#a812df88-a7c4-491e-858a-8e99aadcbeb5);}.aef7392d-c53f-4907-a57c-de396c568145{clip-path:url(#f66cd3a1-5865-4b27-b07b-175c2ebb835b);}.fb5146dd-4801-4c71-b2c6-4d8599544c0d{clip-path:url(#e2535ca1-e12a-4746-8802-455b18a58650);}.ebc40f99-49f6-425a-a9e0-7345f2da3943{clip-path:url(#bcca027d-81c0-449d-8fa7-d673d276a31a);}.aa7c92ee-f0dc-4b43-9d4f-a569266a878a{clip-path:url(#f6f42916-e53d-4d95-a4e4-48498bb67a66);}.e3331fbb-3d4f-43cd-89a7-d6909ca69f9c{clip-path:url(#a614aad7-16ec-431b-ba11-02e56d77c059);}.ba45928f-aeb5-4a33-bff0-e66437352c79{fill:#a6a6a6;}.b9e897ad-016e-471d-a052-ba369b91fe1a{fill:#44a0a0;}</style><clipPath id="abdde2b7-bf18-45a6-a842-f2cef82426ec"><rect class="af2e5db1-ded0-4fbc-a458-3dbc0489d703" x="340.66" y="82.83" width="647.64" height="731.35"/></clipPath><clipPath id="aec5bf4a-5549-449e-a8d7-2922cdfa2739"><rect class="af2e5db1-ded0-4fbc-a458-3dbc0489d703" x="571.56" y="355.37" width="418.95" height="397.81"/></clipPath><clipPath id="b3b1b0f9-8c65-481d-a5c6-3e0e7ce23a31"><rect class="af2e5db1-ded0-4fbc-a458-3dbc0489d703" x="576.01" y="359.82" width="162.57" height="222.88"/></clipPath><clipPath id="f68cf999-ba90-4bb0-b5fa-476efc529f75"><rect class="af2e5db1-ded0-4fbc-a458-3dbc0489d703" x="611.37" y="383.54" width="162.57" height="222.88"/></clipPath><clipPath id="a812df88-a7c4-491e-858a-8e99aadcbeb5"><rect class="af2e5db1-ded0-4fbc-a458-3dbc0489d703" x="646.72" y="407.26" width="162.57" height="222.88"/></clipPath><clipPath id="f66cd3a1-5865-4b27-b07b-175c2ebb835b"><rect class="af2e5db1-ded0-4fbc-a458-3dbc0489d703" x="682.08" y="430.98" width="162.57" height="222.88"/></clipPath><clipPath id="e2535ca1-e12a-4746-8802-455b18a58650"><rect class="af2e5db1-ded0-4fbc-a458-3dbc0489d703" x="717.43" y="454.7" width="162.57" height="222.88"/></clipPath><clipPath id="bcca027d-81c0-449d-8fa7-d673d276a31a"><rect class="af2e5db1-ded0-4fbc-a458-3dbc0489d703" x="752.79" y="478.41" width="162.57" height="222.88"/></clipPath><clipPath id="f6f42916-e53d-4d95-a4e4-48498bb67a66"><rect class="af2e5db1-ded0-4fbc-a458-3dbc0489d703" x="788.15" y="502.13" width="162.57" height="222.88"/></clipPath><clipPath id="a614aad7-16ec-431b-ba11-02e56d77c059"><rect class="af2e5db1-ded0-4fbc-a458-3dbc0489d703" x="823.5" y="525.85" width="162.57" height="222.88"/></clipPath></defs><g id="fe157cc0-56ad-4481-8421-2bef7ba7c6a7" data-name="Vector Smart Object"><g class="bced41f2-f6a3-49fa-ad42-ccbfaf8a769a"><rect class="e5a9559e-a9fb-4de1-a2b6-2d2fa76438bc" x="357.52" y="741.36" width="12.54" height="70.64"/><g class="bced41f2-f6a3-49fa-ad42-ccbfaf8a769a"><rect class="bbcacc84-9faf-4bd4-8b33-18dd83c1c54d" x="357.52" y="741.37" width="12.54" height="70.64"/></g><rect class="e5a9559e-a9fb-4de1-a2b6-2d2fa76438bc" x="422.72" y="741.36" width="12.54" height="70.64"/><g class="bced41f2-f6a3-49fa-ad42-ccbfaf8a769a"><rect class="bbcacc84-9faf-4bd4-8b33-18dd83c1c54d" x="422.72" y="741.37" width="12.54" height="70.64"/><path class="bfe34bbb-d90b-4fc1-b04f-c382198578cf" d="M445.29,661.43c0-29.41-21.89-53.27-48.9-53.27s-48.9,23.86-48.9,53.27v93.31h97.8Z"/><path class="bbcacc84-9faf-4bd4-8b33-18dd83c1c54d" d="M445.29,661.43c0-29.41-21.89-53.27-48.9-53.27s-48.9,23.86-48.9,53.27v93.31h97.8Z"/><rect class="e5a9559e-a9fb-4de1-a2b6-2d2fa76438bc" x="342.26" y="740.53" width="108.26" height="17.35"/><rect class="bbcacc84-9faf-4bd4-8b33-18dd83c1c54d" x="342.26" y="740.53" width="108.26" height="17.35"/><rect class="e5a9559e-a9fb-4de1-a2b6-2d2fa76438bc" x="547.14" y="742.6" width="12.54" height="70.64" transform="translate(-302.28 354.57) rotate(-28.25)"/><rect class="bbcacc84-9faf-4bd4-8b33-18dd83c1c54d" x="547.14" y="742.6" width="12.54" height="70.64" transform="translate(-302.28 354.57) rotate(-28.25)"/><rect class="e5a9559e-a9fb-4de1-a2b6-2d2fa76438bc" x="604.58" y="711.75" width="12.54" height="70.64" transform="matrix(0.88, -0.47, 0.47, 0.88, -280.75, 377.88)"/><rect class="bbcacc84-9faf-4bd4-8b33-18dd83c1c54d" x="604.58" y="711.75" width="12.54" height="70.64" transform="matrix(0.88, -0.47, 0.47, 0.88, -280.75, 377.88)"/><path class="e0f40ff4-9c41-4ff8-a0b5-a897b1973031" d="M570.68,637.82c-13.91-25.91-44.49-36.57-68.28-23.79s-31.8,44.15-17.89,70.07l44.15,82.2L614.83,720Z"/><path class="bbcacc84-9faf-4bd4-8b33-18dd83c1c54d" d="M570.68,637.82c-13.91-25.91-44.49-36.57-68.28-23.79s-31.8,44.15-17.89,70.07l44.15,82.2L614.83,720Z"/><rect class="e5a9559e-a9fb-4de1-a2b6-2d2fa76438bc" x="514.99" y="729.61" width="108.26" height="17.35" transform="translate(-281.56 357.11) rotate(-28.24)"/><rect class="bbcacc84-9faf-4bd4-8b33-18dd83c1c54d" x="514.99" y="729.61" width="108.26" height="17.35" transform="translate(-281.56 357.11) rotate(-28.24)"/><rect class="b36a46b9-1ca3-4926-a3a2-a11a7662b350" x="487.14" y="388.97" width="118.71" height="16.72" transform="translate(-102.28 586.08) rotate(-52.24)"/><rect class="bbcacc84-9faf-4bd4-8b33-18dd83c1c54d" x="487.14" y="388.97" width="118.71" height="16.72" transform="translate(-102.28 586.08) rotate(-52.24)"/><rect class="b36a46b9-1ca3-4926-a3a2-a11a7662b350" x="357.85" y="288.82" width="118.71" height="16.72" transform="translate(-73.22 445.04) rotate(-52.24)"/><rect class="bbcacc84-9faf-4bd4-8b33-18dd83c1c54d" x="357.85" y="288.82" width="118.71" height="16.72" transform="translate(-73.22 445.04) rotate(-52.24)"/><rect class="b36a46b9-1ca3-4926-a3a2-a11a7662b350" x="422.5" y="338.9" width="118.71" height="16.72" transform="translate(-87.75 515.56) rotate(-52.24)"/><rect class="bbcacc84-9faf-4bd4-8b33-18dd83c1c54d" x="422.5" y="338.9" width="118.71" height="16.72" transform="translate(-87.75 515.56) rotate(-52.24)"/><path class="b36a46b9-1ca3-4926-a3a2-a11a7662b350" d="M692.94,247.38c31.59-40.79,19.79-102.84-26.37-138.59s-109.19-31.68-140.78,9.12L425.58,247.27,592.73,376.75Z"/><path class="bbcacc84-9faf-4bd4-8b33-18dd83c1c54d" d="M692.94,247.38c31.59-40.79,19.79-102.84-26.37-138.59s-109.19-31.68-140.78,9.12L425.58,247.27,592.73,376.75Z"/><g class="bb2bcaa5-61d0-4e0f-874e-80e8d8622c6c"><g class="a54a3254-a7b8-4fbc-a71a-bd67296d5580"><rect class="e9f2a31b-8e0f-408a-bf13-7dc687c8a833" x="532.68" y="456.98" width="249.23" height="28.56" transform="translate(-100.25 754.55) rotate(-56.14)"/></g><path d="M715.3,362l21.06,14.13L599.29,580.48l-21.06-14.13Zm-.88-4.44L573.79,567.22l26.38,17.7L740.8,375.29Z"/><g class="bc615ded-3750-4adb-8212-cc6864385948"><rect class="e9f2a31b-8e0f-408a-bf13-7dc687c8a833" x="568.04" y="480.7" width="249.23" height="28.56" transform="translate(-104.28 794.42) rotate(-56.14)"/></g><path d="M750.65,385.76l21.06,14.13L634.65,604.2l-21.06-14.13Zm-.87-4.45L609.14,591l26.38,17.69L776.16,399Z"/><g class="ae996fba-6ff4-422c-8226-f84a46128f4d"><rect class="e9f2a31b-8e0f-408a-bf13-7dc687c8a833" x="603.39" y="504.42" width="249.23" height="28.56" transform="translate(-108.32 834.28) rotate(-56.14)"/></g><path d="M786,409.48l21.06,14.13L670,627.91l-21.06-14.12Zm-.88-4.45L644.5,614.66l26.38,17.7L811.51,422.73Z"/><g class="aef7392d-c53f-4907-a57c-de396c568145"><rect class="e9f2a31b-8e0f-408a-bf13-7dc687c8a833" x="638.75" y="528.14" width="249.23" height="28.56" transform="matrix(0.56, -0.83, 0.83, 0.56, -112.36, 874.14)"/></g><path d="M821.37,433.2l21,14.13L705.36,651.63,684.3,637.51Zm-.88-4.45L679.86,638.38l26.38,17.7L846.87,446.45Z"/><g class="fb5146dd-4801-4c71-b2c6-4d8599544c0d"><rect class="e9f2a31b-8e0f-408a-bf13-7dc687c8a833" x="674.1" y="551.86" width="249.23" height="28.56" transform="translate(-116.4 914.01) rotate(-56.14)"/></g><path d="M856.72,456.92l21.06,14.13L740.72,675.35l-21.06-14.12Zm-.87-4.45L715.21,662.1l26.38,17.7L882.23,470.17Z"/><g class="ebc40f99-49f6-425a-a9e0-7345f2da3943"><rect class="e9f2a31b-8e0f-408a-bf13-7dc687c8a833" x="709.46" y="575.57" width="249.23" height="28.56" transform="translate(-120.44 953.88) rotate(-56.14)"/></g><path d="M892.08,480.64l21.06,14.12L776.07,699.07,755,685Zm-.88-4.45L750.57,685.82,777,703.52,917.58,493.89Z"/><g class="aa7c92ee-f0dc-4b43-9d4f-a569266a878a"><rect class="e9f2a31b-8e0f-408a-bf13-7dc687c8a833" x="744.81" y="599.29" width="249.23" height="28.56" transform="translate(-124.48 993.74) rotate(-56.14)"/></g><path d="M927.43,504.36l21.06,14.12L811.42,722.79l-21-14.13Zm-.87-4.45L785.92,709.54l26.38,17.7L952.94,517.61Z"/><g class="e3331fbb-3d4f-43cd-89a7-d6909ca69f9c"><rect class="e9f2a31b-8e0f-408a-bf13-7dc687c8a833" x="780.17" y="623.01" width="249.23" height="28.56" transform="translate(-128.52 1033.6) rotate(-56.14)"/></g><path d="M962.79,528.07l21.06,14.13L846.78,746.51l-21.06-14.13Zm-.88-4.44L821.28,733.26,847.66,751,988.29,541.33Z"/></g><rect class="ba45928f-aeb5-4a33-bff0-e66437352c79" x="691.24" y="372.8" width="179.59" height="362.95" transform="translate(-114.38 894.08) rotate(-56.14)"/><rect class="bbcacc84-9faf-4bd4-8b33-18dd83c1c54d" x="691.24" y="372.8" width="179.59" height="362.95" transform="translate(-114.38 894.08) rotate(-56.14)"/></g></g></g><path class="b9e897ad-016e-471d-a052-ba369b91fe1a" d="M1098.63,381.12V231.82h103v27.79h-67.06v31.48h56.5v26.76h-56.5v35.58h66.75v27.69Z"/><path class="b9e897ad-016e-471d-a052-ba369b91fe1a" d="M1243.82,270.17l15.59,30.56,16.1-30.56h35.89l-29.12,54,30.66,56.91h-36.2l-17.33-32.81-17.23,32.81H1206l30.66-56.91-29-54Z"/><path class="b9e897ad-016e-471d-a052-ba369b91fe1a" d="M1382.56,383.17a31.87,31.87,0,0,1-25-11.18v51.78H1323V270.17h32.2l1.13,10.25q9.95-12.3,26.15-12.3,21.12,0,32.14,15.43t11,40.76v2.15q0,24.21-11,40.46T1382.56,383.17Zm-8.72-88.39q-12.09,0-16.3,8.82v43.78q4.51,9.14,16.51,9.13,9.73,0,13.38-8.77t3.64-23.43q0-12.92-3.79-21.22T1373.84,294.78Z"/><path class="b9e897ad-016e-471d-a052-ba369b91fe1a" d="M1477.41,223.62v157.5h-34.66V223.62Z"/><path class="b9e897ad-016e-471d-a052-ba369b91fe1a" d="M1561.08,381.12a42.54,42.54,0,0,1-3.18-9.95q-9.54,12-26.66,12-15.37,0-26.51-9.28t-11.12-24.05q0-16.92,12.35-26.6t38.51-9.9h11.79V307.5q0-15.28-13.23-15.28-12.3,0-12.3,12.1h-34.56q0-15.48,13.23-25.84t35.48-10.36q19.78,0,33,9.89T1591,307.7V356q.21,15.06,4.72,23.37v1.75Zm-21.64-22.56a19.64,19.64,0,0,0,10.67-2.72,17.15,17.15,0,0,0,6.15-6.1V331.8h-10.87q-9.73,0-13.48,5a18.18,18.18,0,0,0-3.74,11.23,9.83,9.83,0,0,0,3.22,7.64A11.6,11.6,0,0,0,1539.44,358.56Z"/><path class="b9e897ad-016e-471d-a052-ba369b91fe1a" d="M1610,241.56a15.45,15.45,0,0,1,5.33-12.1q5.34-4.71,13.85-4.71t13.84,4.71a16.4,16.4,0,0,1,0,24.2q-5.34,4.72-13.84,4.72t-13.85-4.72A15.43,15.43,0,0,1,1610,241.56Zm36.71,28.61v111H1612V270.17Z"/><path class="b9e897ad-016e-471d-a052-ba369b91fe1a" d="M1716.84,294.78q-10.15,0-15,7.9v78.44h-34.56V270.17h32.4l1.13,12.92q11.58-15,31.58-15,15.39,0,25.07,9.43t9.8,33.23v70.34h-34.77V311.19q0-10.05-4.1-13.23T1716.84,294.78Z"/><path class="b9e897ad-016e-471d-a052-ba369b91fe1a" d="M1848.91,381.12a42.54,42.54,0,0,1-3.18-9.95q-9.54,12-26.66,12-15.39,0-26.51-9.28t-11.12-24.05q0-16.92,12.35-26.6t38.51-9.9h11.79V307.5q0-15.28-13.23-15.28-12.3,0-12.3,12.1H1784q0-15.48,13.23-25.84t35.48-10.36q19.79,0,33,9.89t13.18,29.69V356q.2,15.06,4.72,23.37v1.75Zm-21.64-22.56a19.67,19.67,0,0,0,10.67-2.72,17.15,17.15,0,0,0,6.15-6.1V331.8h-10.87q-9.75,0-13.49,5A18.24,18.24,0,0,0,1816,348a9.84,9.84,0,0,0,3.23,7.64A11.6,11.6,0,0,0,1827.27,358.56Z"/><path class="b9e897ad-016e-471d-a052-ba369b91fe1a" d="M2001,326.57q0,25.13-10.46,40.86t-32.6,15.74q-16.92,0-27.07-13.43l-1.54,11.38h-31V223.62h34.56V279q9.73-10.87,24.81-10.87,22.15,0,32.66,15.79T2001,324Zm-51.88-31.79q-11.79,0-16.2,8.82v44.3q4.39,8.72,16.4,8.71,10.88,0,14-7.89t3.13-24.31a60.47,60.47,0,0,0-3.23-20.86Q1960,294.77,1949.09,294.78Z"/><path class="b9e897ad-016e-471d-a052-ba369b91fe1a" d="M2052.76,223.62v157.5H2018.1V223.62Z"/><path class="b9e897ad-016e-471d-a052-ba369b91fe1a" d="M2171.39,363.69q-5.13,7.28-16.4,13.38t-27.28,6.1q-27.08,0-42.09-15.89a53.34,53.34,0,0,1-15.13-37.64v-4.2q0-24.3,13.44-40.81T2124,268.12q23.58,0,37,14.66t13.39,39.69v14h-68.6a25.08,25.08,0,0,0,8.1,14.62q6.26,5.37,16.1,5.38,16.5,0,25.73-11.49Zm-47.68-68.91q-8.82,0-12.82,5.69a31.83,31.83,0,0,0-5.12,14.41h34.86v-2.67Q2140.84,294.78,2123.71,294.78Z"/><path class="b9e897ad-016e-471d-a052-ba369b91fe1a" d="M1175.53,593.44a15.39,15.39,0,0,0-4.87-11.69q-4.87-4.62-21.38-10.1a150.07,150.07,0,0,1-27.73-12q-11.23-6.51-17.23-15.13t-6-20.81q0-19.17,16.3-30.56t41.12-11.38q24.51,0,40.15,12.61t15.63,33.74h-35.78q0-8.42-5.18-13.79t-15.64-5.39q-10.25,0-15.48,4.46c-3.49,3-5.23,6.51-5.23,10.62q0,6.66,7.28,11.23t20.1,8.66q23.79,7.59,36.86,19t13.07,30.3q0,20.21-15.07,31.07t-40.09,10.87a86.12,86.12,0,0,1-29.74-5.23A53.75,53.75,0,0,1,1103,613.53q-9.22-11.17-9.23-28.81h36.09q0,13.13,6.87,18.25t19.59,5.13q10.25,0,14.71-4.31A13.85,13.85,0,0,0,1175.53,593.44Z"/><path class="b9e897ad-016e-471d-a052-ba369b91fe1a" d="M1228.24,493.56a15.42,15.42,0,0,1,5.33-12.1q5.33-4.71,13.84-4.71t13.85,4.71a16.4,16.4,0,0,1,0,24.2q-5.34,4.72-13.85,4.72t-13.84-4.72A15.4,15.4,0,0,1,1228.24,493.56ZM1265,522.17v111h-34.66v-111Z"/><path class="b9e897ad-016e-471d-a052-ba369b91fe1a" d="M1336.11,546.78q-9.75,0-15.07,9.13v77.21h-34.56v-111h32.4l1.23,13q11.49-15.08,31.59-15.07,20.7,0,28.4,16.71,11.18-16.71,32.5-16.71,15.08,0,24.82,9.43t9.84,33.23v70.34H1412.6V563.29q0-10.35-3.53-13.43t-9.69-3.08q-10.37,0-15.38,9.13l.1,77.21h-34.56V563.49q0-10.56-3.54-13.63T1336.11,546.78Z"/><path class="b9e897ad-016e-471d-a052-ba369b91fe1a" d="M1466.85,493.56a15.42,15.42,0,0,1,5.33-12.1q5.33-4.71,13.84-4.71t13.84,4.71a16.38,16.38,0,0,1,0,24.2q-5.33,4.72-13.84,4.72t-13.84-4.72A15.4,15.4,0,0,1,1466.85,493.56Zm36.71,28.61v111H1468.9v-111Z"/><path class="b9e897ad-016e-471d-a052-ba369b91fe1a" d="M1561.28,475.62v157.5h-34.65V475.62Z"/><path class="b9e897ad-016e-471d-a052-ba369b91fe1a" d="M1645,633.12a42.54,42.54,0,0,1-3.18-10q-9.54,12-26.66,12-15.39,0-26.51-9.28t-11.12-24q0-16.92,12.35-26.6t38.51-9.9h11.79V559.5q0-15.29-13.23-15.28-12.3,0-12.3,12.1h-34.56q0-15.48,13.23-25.84t35.48-10.36q19.79,0,33,9.89t13.18,29.69V608q.19,15.06,4.72,23.37v1.75Zm-21.64-22.56a19.67,19.67,0,0,0,10.67-2.72,17.15,17.15,0,0,0,6.15-6.1V583.8h-10.87q-9.75,0-13.48,5A18.19,18.19,0,0,0,1612,600a9.84,9.84,0,0,0,3.23,7.64A11.6,11.6,0,0,0,1623.32,610.56Z"/><path class="b9e897ad-016e-471d-a052-ba369b91fe1a" d="M1749.75,552.62q-16.2,0-20.81,10.16v70.34h-34.56v-111h32.3l1.13,14.15q8.71-16.2,24.4-16.2a31.41,31.41,0,0,1,9.54,1.23l-.62,32.1Z"/><path class="b9e897ad-016e-471d-a052-ba369b91fe1a" d="M1773.44,493.56a15.45,15.45,0,0,1,5.33-12.1q5.32-4.71,13.84-4.71t13.85,4.71a16.4,16.4,0,0,1,0,24.2q-5.34,4.72-13.85,4.72t-13.84-4.72A15.43,15.43,0,0,1,1773.44,493.56Zm36.71,28.61v111h-34.66v-111Z"/><path class="b9e897ad-016e-471d-a052-ba369b91fe1a" d="M1891.46,632.2a62.56,62.56,0,0,1-19.48,3q-16.73,0-25.84-7.95t-9.13-26V546.16h-14v-24h14V494.59h34.56v27.58h18.25v24h-18.25v50.76q0,6.68,2.46,8.92t8.82,2.26a51.73,51.73,0,0,0,8.61-.62Z"/><path class="b9e897ad-016e-471d-a052-ba369b91fe1a" d="M1958.83,649.63a67.58,67.58,0,0,1-5.59,12.2,33.43,33.43,0,0,1-11.07,11.33q-7.34,4.77-20,4.77l-6.56-.31-7.79-1.74V651.16h4.51q8.31,0,11.79-2.46a13.6,13.6,0,0,0,5-7.17l2.88-7.28-38.76-112.08h37L1948,584.82l18.35-62.65h37.12Z"/><path class="b9e897ad-016e-471d-a052-ba369b91fe1a" d="M2066.29,633.12V483.82h48q20.19,0,35.84,9.08a64.39,64.39,0,0,1,24.5,25.22q8.87,16.15,8.87,37.27v6.26q0,31.49-19.22,51.42t-49.27,20Zm36-121.51v93.82h12.51q30.15,0,31.89-38.86l.1-11.38q0-42.66-31.17-43.58Z"/><path class="b9e897ad-016e-471d-a052-ba369b91fe1a" d="M2297.93,615.69q-5.13,7.27-16.41,13.38t-27.28,6.1q-27.06,0-42.09-15.89A53.33,53.33,0,0,1,2197,581.64v-4.2q0-24.3,13.43-40.81t40.09-16.51q23.58,0,37,14.66t13.38,39.69v14h-68.6a25.08,25.08,0,0,0,8.1,14.62q6.26,5.37,16.1,5.38,16.5,0,25.74-11.49Zm-47.69-68.91q-8.82,0-12.81,5.69a31.72,31.72,0,0,0-5.13,14.41h34.86v-2.67Q2267.37,546.78,2250.24,546.78Z"/><path class="b9e897ad-016e-471d-a052-ba369b91fe1a" d="M2375,632.2a62.52,62.52,0,0,1-19.48,3q-16.71,0-25.84-7.95t-9.12-26V546.16h-14.05v-24h14.05V494.59h34.55v27.58h18.25v24h-18.25v50.76q0,6.68,2.46,8.92t8.82,2.26a51.73,51.73,0,0,0,8.61-.62Z"/><path class="b9e897ad-016e-471d-a052-ba369b91fe1a" d="M2484.55,615.69q-5.13,7.27-16.41,13.38t-27.28,6.1q-27.06,0-42.09-15.89a53.37,53.37,0,0,1-15.12-37.64v-4.2q0-24.3,13.43-40.81t40.09-16.51q23.6,0,37,14.66t13.38,39.69v14h-68.6a25.08,25.08,0,0,0,8.1,14.62q6.26,5.37,16.1,5.38,16.52,0,25.74-11.49Zm-47.68-68.91q-8.82,0-12.82,5.69a31.72,31.72,0,0,0-5.13,14.41h34.86v-2.67Q2454,546.78,2436.87,546.78Z"/><path class="b9e897ad-016e-471d-a052-ba369b91fe1a" d="M2548.43,608.51q15.48,0,15.17-15h32.51q.1,18.76-13.38,30.2t-33.48,11.43q-26.05,0-39-16.1t-13-40.2v-2.35q0-24.1,13-40.25T2549,520.12q20.72,0,33.94,11.69t13.13,32.81H2563.6A19.63,19.63,0,0,0,2560,552q-3.84-5.18-11.74-5.18-10.45,0-13.43,8.51t-3,23.58q0,12.32,2.87,21T2548.43,608.51Z"/><path class="b9e897ad-016e-471d-a052-ba369b91fe1a" d="M2670.86,632.2a62.56,62.56,0,0,1-19.48,3q-16.73,0-25.84-7.95t-9.13-26V546.16h-14v-24h14V494.59H2651v27.58h18.25v24H2651v50.76q0,6.68,2.46,8.92t8.82,2.26a51.73,51.73,0,0,0,8.61-.62Z"/><path class="b9e897ad-016e-471d-a052-ba369b91fe1a" d="M2675.58,576.62q0-24.3,13.69-40.4t39.73-16.1q26.14,0,39.89,16.1t13.74,40.4v2.15q0,24.3-13.69,40.35t-39.73,16q-25.85,0-39.53-15.64t-14.1-39.42Zm34.55,2.15q0,12.51,3.95,21.13t15.13,8.61q10.86,0,14.86-8.56t4-23.33q0-12.2-3.94-21T2729,546.78q-10.87,0-14.87,8.77T2710.13,578.77Z"/><path class="b9e897ad-016e-471d-a052-ba369b91fe1a" d="M2853.58,552.62q-16.2,0-20.81,10.16v70.34h-34.56v-111h32.3l1.13,14.15q8.71-16.2,24.41-16.2a31.38,31.38,0,0,1,9.53,1.23l-.61,32.1Z"/></svg>